<svg version="1.1" xmlns="http://www.w3.org/2000/svg" fill="#fff" width="32" height="32" viewBox="0 0 32 32">
  <title>challenge</title>
  <path d="M16 32c-8.837 0-16-7.163-16-16s7.163-16 16-16 16 7.163 16 16-7.163 16-16 16zM23.924 15.308c0-0.679-0.551-1.231-1.231-1.231h-4.923v-4.923c0-0.679-0.55-1.231-1.231-1.231h-1.231c-0.681 0-1.231 0.551-1.231 1.231v4.923h-4.923c-0.681 0-1.231 0.551-1.231 1.231v1.231c0 0.681 0.55 1.231 1.231 1.231h4.923v4.923c0 0.681 0.55 1.231 1.231 1.231h1.231c0.681 0 1.231-0.55 1.231-1.231v-4.923h4.923c0.679 0 1.231-0.55 1.231-1.231v-1.231z"></path>
</svg>
