<svg version="1.1" xmlns="http://www.w3.org/2000/svg" fill="#fff" width="32" height="32" viewBox="0 0 32 32">
  <title>corporations</title>
  <path d="M0 3.765c0-2.079 1.686-3.765 3.765-3.765h5.647c2.079 0 3.765 1.686 3.765 3.765v5.647c0 2.079-1.686 3.765-3.765 3.765h-5.647c-2.079 0-3.765-1.686-3.765-3.765v-5.647z"></path>
  <path d="M0 20.706c0-2.079 1.686-3.765 3.765-3.765h5.647c2.079 0 3.765 1.686 3.765 3.765v5.647c0 2.079-1.686 3.765-3.765 3.765h-5.647c-2.079 0-3.765-1.685-3.765-3.765v-5.647z"></path>
  <path d="M16.941 3.765c0-2.079 1.686-3.765 3.765-3.765h5.647c2.079 0 3.765 1.686 3.765 3.765v5.647c0 2.079-1.685 3.765-3.765 3.765h-5.647c-2.079 0-3.765-1.686-3.765-3.765v-5.647z"></path>
  <path d="M16.941 20.706c0-2.079 1.686-3.765 3.765-3.765h7.529c2.079 0 3.765 1.686 3.765 3.765v7.529c0 2.079-1.686 3.765-3.765 3.765h-7.529c-2.079 0-3.765-1.685-3.765-3.765v-7.529z"></path>
</svg>
