<svg version="1.1" xmlns="http://www.w3.org/2000/svg" fill="#fff" width="32" height="32" viewBox="0 0 32 32">
  <title>incubator</title>
  <path d="M17.27 7.619h-2.54c-0.674 0-1.32 0.285-1.796 0.793s-0.744 1.197-0.744 1.916v19.005c0 1.473 1.194 2.667 2.667 2.667h2.286c1.473 0 2.667-1.194 2.667-2.667v-19.005c0-0.718-0.268-1.408-0.744-1.916s-1.122-0.793-1.796-0.793z"></path>
  <path d="M29.46 0h-2.54c-0.674 0-1.32 0.281-1.796 0.781s-0.744 1.178-0.744 1.886v26.667c0 1.473 1.194 2.667 2.667 2.667h2.286c1.473 0 2.667-1.194 2.667-2.667v-26.667c0-0.707-0.267-1.386-0.744-1.886s-1.122-0.781-1.796-0.781z"></path>
  <path d="M5.079 15.238h-2.54c-0.674 0-1.32 0.294-1.796 0.818s-0.744 1.235-0.744 1.975v11.302c0 1.473 1.194 2.667 2.667 2.667h2.286c1.473 0 2.667-1.194 2.667-2.667v-11.302c0-0.741-0.268-1.451-0.744-1.975s-1.122-0.818-1.796-0.818z"></path>
</svg>
