<svg version="1.1" xmlns="http://www.w3.org/2000/svg" fill="#b6c0cd" viewBox="0 0 32 32">
	<title>linkedin</title>
	<path d="M11.429 10.286h6.325v3.242h0.090c0.88-1.578 3.034-3.242 6.244-3.242 6.677 0 7.911 4.156 7.911 9.562v11.009h-6.593v-9.76c0-2.328-0.048-5.322-3.43-5.322-3.434 0-3.958 2.535-3.958 5.153v9.929h-6.591v-20.571z"></path>
	<path d="M0 10.286h6.857v20.571h-6.857v-20.571z"></path>
	<path d="M6.857 4.571c0 1.894-1.535 3.429-3.429 3.429s-3.429-1.535-3.429-3.429c0-1.894 1.535-3.429 3.429-3.429s3.429 1.535 3.429 3.429z"></path>
</svg>