<svg version="1.1" xmlns="http://www.w3.org/2000/svg" fill="#fff" width="32" height="32" viewBox="0 0 32 32">
  <title>automate</title>
  <path d="M13.171 18.564l-12.179-12.18c0.59-0.978 1.422-1.788 2.416-2.351s2.116-0.861 3.259-0.864h9.725c-0.692 2.365-0.426 4.907 0.74 7.077s3.14 3.795 5.494 4.523l-3.796 3.797c-0.752 0.748-1.769 1.168-2.83 1.167s-2.078-0.421-2.829-1.17zM20.715 20.449c-1.252 1.248-2.947 1.949-4.715 1.949s-3.463-0.701-4.715-1.949l-11.224-11.224c-0.019 0.211-0.061 0.401-0.061 0.611v14.667c0.002 1.768 0.705 3.462 1.955 4.712s2.944 1.953 4.712 1.955h18.667c1.767-0.002 3.462-0.705 4.712-1.955s1.953-2.944 1.955-4.712v-12.141c-1.585 1.622-3.709 2.608-5.971 2.773l-5.315 5.315z"></path>
  <path d="M19.956 8.995h3.28v3.28c0 0.432 0.172 0.846 0.477 1.151s0.719 0.477 1.151 0.477c0.432 0 0.846-0.172 1.151-0.477s0.477-0.719 0.477-1.151v-3.28h3.28c0.432 0 0.846-0.172 1.151-0.477s0.477-0.719 0.477-1.151c0-0.432-0.171-0.846-0.477-1.151s-0.72-0.477-1.151-0.477h-3.28v-3.28c0-0.432-0.171-0.846-0.477-1.151s-0.72-0.477-1.151-0.477c-0.432 0-0.846 0.172-1.151 0.477s-0.477 0.719-0.477 1.151v3.28h-3.28c-0.432 0-0.846 0.172-1.151 0.477s-0.477 0.719-0.477 1.151c0 0.432 0.172 0.846 0.477 1.151s0.719 0.477 1.151 0.477z"></path>
</svg>
