<svg version="1.1" xmlns="http://www.w3.org/2000/svg" fill="#fff" width="32" height="32" viewBox="0 0 32 32">
  <title>calendar</title>
  <path d="M32 6.667v4h-32v-4c0-2.205 1.795-4 4-4h4v-2.667h2.667v2.667h10.667v-2.667h2.667v2.667h4c2.205 0 4 1.795 4 4zM10.667 22.667c0-3.772 1.744-7.133 4.465-9.333h-15.132v18.667h15.132c-2.721-2.2-4.465-5.561-4.465-9.333z"></path>
  <path d="M16.2 23.867h4.6v4.6c0 0.407 0.162 0.797 0.449 1.084s0.678 0.449 1.084 0.449 0.797-0.161 1.084-0.449c0.288-0.288 0.449-0.677 0.449-1.084v-4.6h4.6c0.407 0 0.797-0.161 1.084-0.449s0.449-0.677 0.449-1.084c0-0.407-0.161-0.797-0.449-1.084s-0.678-0.449-1.084-0.449h-4.6v-4.6c0-0.407-0.162-0.797-0.449-1.084s-0.678-0.449-1.084-0.449c-0.407 0-0.797 0.162-1.084 0.449s-0.449 0.678-0.449 1.084v4.6h-4.6c-0.407 0-0.797 0.162-1.084 0.449s-0.449 0.678-0.449 1.084c0 0.407 0.162 0.797 0.449 1.084s0.678 0.449 1.084 0.449z"></path>
  <path d="M16.2 23.867h4.6v4.6c0 0.407 0.162 0.797 0.449 1.084s0.678 0.449 1.084 0.449 0.797-0.161 1.084-0.449c0.288-0.288 0.449-0.677 0.449-1.084v-4.6h4.6c0.407 0 0.797-0.161 1.084-0.449s0.449-0.677 0.449-1.084c0-0.407-0.161-0.797-0.449-1.084s-0.678-0.449-1.084-0.449h-4.6v-4.6c0-0.407-0.162-0.797-0.449-1.084s-0.678-0.449-1.084-0.449c-0.407 0-0.797 0.162-1.084 0.449s-0.449 0.678-0.449 1.084v4.6h-4.6c-0.407 0-0.797 0.162-1.084 0.449s-0.449 0.678-0.449 1.084c0 0.407 0.162 0.797 0.449 1.084s0.678 0.449 1.084 0.449z"></path>
</svg>
