<svg version="1.1" xmlns="http://www.w3.org/2000/svg" fill="#fff" width="32" height="32" viewBox="0 0 32 32">
  <title>scheduling</title>
  <path d="M32 6.667v4h-32v-4c0-2.205 1.795-4 4-4h4v-2.667h2.667v2.667h10.667v-2.667h2.667v2.667h4c2.205 0 4 1.795 4 4zM10.667 22.667c0-3.772 1.744-7.133 4.465-9.333h-15.132v18.667h15.132c-2.721-2.2-4.465-5.561-4.465-9.333z"></path>
  <path d="M29.225 22.667c-0-0.398-0.037-0.796-0.11-1.188l2.218-1.267-2.186-3.756-2.218 1.27c-0.613-0.519-1.316-0.922-2.076-1.189v-2.537h-4.372v2.537c-0.76 0.266-1.464 0.669-2.076 1.189l-2.218-1.27-2.186 3.756 2.218 1.268c-0.146 0.785-0.146 1.591 0 2.376l-2.217 1.267 2.186 3.756 2.218-1.27c0.613 0.519 1.316 0.922 2.076 1.188v2.537h4.372v-2.537c0.76-0.266 1.464-0.669 2.076-1.189l2.218 1.271 2.186-3.756-2.218-1.267c0.073-0.392 0.109-0.79 0.11-1.188zM24.853 22.667c0 0.428-0.128 0.847-0.368 1.204s-0.582 0.634-0.981 0.798c-0.399 0.164-0.839 0.207-1.263 0.123s-0.814-0.29-1.119-0.593-0.514-0.689-0.598-1.109c-0.084-0.42-0.041-0.856 0.124-1.252s0.446-0.734 0.805-0.972c0.359-0.238 0.782-0.365 1.215-0.365 0.58 0 1.136 0.228 1.546 0.635s0.64 0.957 0.64 1.532z"></path>
</svg>
