<svg version="1.1" xmlns="http://www.w3.org/2000/svg" fill="#fff" width="32" height="32" viewBox="0 0 32 32">
  <title>smart</title>
  <path d="M24.533 25.843v6.157c0.924-0.317 1.766-0.838 2.461-1.525l3.479-3.482c0.687-0.695 1.209-1.535 1.526-2.46h-6.157c-0.347 0-0.681 0.138-0.926 0.384s-0.384 0.579-0.384 0.926z"></path>
  <path d="M10.084 17.946c-0.492 0.492-0.882 1.075-1.148 1.718s-0.403 1.331-0.403 2.026v1.777h1.777c0.695 0 1.384-0.137 2.026-0.403s1.226-0.656 1.718-1.148l14.99-14.99c0.526-0.526 0.822-1.24 0.822-1.985s-0.296-1.458-0.822-1.985c-0.526-0.526-1.24-0.822-1.985-0.822s-1.458 0.296-1.985 0.822l-14.99 14.99z"></path>
  <path d="M32 6.603c-0.227 0.989-0.726 1.895-1.44 2.616l-15.112 15.105c-0.741 0.745-1.623 1.336-2.594 1.738s-2.012 0.608-3.063 0.605h-1.791c-0.707 0-1.386-0.281-1.886-0.781s-0.781-1.179-0.781-1.886v-1.791c-0.003-1.051 0.203-2.092 0.605-3.063s0.993-1.852 1.739-2.593l15.104-15.105c0.715-0.715 1.616-1.217 2.601-1.448-0.017 0-0.032 0-0.049 0h-18.667c-1.767 0.002-3.462 0.705-4.712 1.955s-1.953 2.944-1.955 4.712v18.667c0.002 1.767 0.705 3.462 1.955 4.712s2.944 1.953 4.712 1.955h14.667v-6.667c0-1.061 0.421-2.078 1.172-2.829s1.767-1.172 2.828-1.172h6.667v-14.667c0-0.021 0-0.041 0-0.064z"></path>
</svg>
