<svg version="1.1" xmlns="http://www.w3.org/2000/svg" fill="#fff" width="32" height="32" viewBox="0 0 32 32">
  <title>track</title>
  <path d="M13.167 18.279l-12.501-11.897c0.582-0.97 1.651-2.086 2.632-2.644s2.162-0.658 3.29-0.661h9.869c-0.683 2.344-0.493 5.119 0.658 7.271s2.94 3.244 5.264 3.966l-3.948 3.966c-0.742 0.742-1.585 1.322-2.632 1.322s-1.891-0.579-2.632-1.322zM20.405 20.262c-1.235 1.237-2.861 1.983-4.606 1.983s-3.37-0.746-4.606-1.983l-11.185-11.236c-0.018 0.209 0 0.453 0 0.661v14.541c0.002 1.752 0.74 3.388 1.974 4.627s2.861 1.981 4.606 1.983h18.423c1.744-0.002 3.372-0.744 4.606-1.983s1.972-2.874 1.974-4.627v-11.897c-1.565 1.608-3.689 2.48-5.922 2.644l-5.264 5.288z"></path>
  <path d="M32 7.316c0 3.393-2.761 6.154-6.154 6.154s-6.154-2.76-6.154-6.154c0-3.393 2.761-6.154 6.154-6.154s6.154 2.76 6.154 6.154zM27.897 8.684l-1.368-2.051v-2.051h-1.367v3.419l2.051 1.368 0.684-0.684z"></path>
</svg>
