<svg version="1.1" xmlns="http://www.w3.org/2000/svg" fill="#ff4a00" width="74" height="32" viewBox="0 0 74 32">
  <title>zapier</title>
  <path d="M44.596 13.964h-1.853c-0.038-0.138-0.066-0.298-0.085-0.48-0.038-0.354-0.038-0.71 0-1.063 0.019-0.181 0.047-0.341 0.085-0.48h4.618v13.304c-0.231 0.037-0.464 0.062-0.698 0.077-0.233 0.016-0.466 0.025-0.699 0.026-0.223-0.001-0.447-0.010-0.669-0.026-0.234-0.015-0.467-0.041-0.698-0.078v-11.281l-0 0zM60.672 17.31c0-0.484-0.071-0.947-0.213-1.388s-0.352-0.825-0.627-1.154c-0.276-0.328-0.627-0.592-1.055-0.791s-0.936-0.298-1.525-0.298c-1.159 0-2.048 0.32-2.665 0.96s-0.993 1.53-1.126 2.671h7.212zM53.432 19.229c0.038 1.452 0.451 2.516 1.24 3.189s1.953 1.012 3.492 1.012c1.349 0 2.632-0.217 3.848-0.649 0.152 0.259 0.275 0.575 0.37 0.947 0.093 0.362 0.151 0.731 0.171 1.102-0.627 0.243-1.316 0.423-2.066 0.545-0.751 0.121-1.582 0.182-2.494 0.182-1.331 0-2.471-0.169-3.421-0.506s-1.734-0.813-2.352-1.426c-0.618-0.614-1.069-1.34-1.354-2.178s-0.428-1.759-0.428-2.762c0-0.985 0.138-1.906 0.413-2.762s0.699-1.599 1.268-2.23c0.57-0.631 1.288-1.133 2.152-1.504s1.886-0.558 3.064-0.558c1.007 0 1.891 0.156 2.651 0.467s1.397 0.739 1.91 1.284c0.513 0.545 0.903 1.193 1.169 1.945s0.399 1.569 0.399 2.451c0 0.242-0.010 0.497-0.029 0.765-0.016 0.229-0.034 0.458-0.057 0.687l-9.948 0.001zM66.574 11.941c0.198-0.033 0.398-0.059 0.599-0.078 0.19-0.017 0.39-0.026 0.599-0.026s0.418 0.009 0.627 0.026c0.209 0.018 0.399 0.044 0.57 0.078 0.056 0.259 0.114 0.601 0.17 1.024s0.086 0.782 0.086 1.076c0.399-0.588 0.926-1.098 1.582-1.53s1.497-0.648 2.523-0.648c0.152 0 0.309 0.005 0.47 0.013 0.138 0.007 0.276 0.019 0.413 0.039 0.038 0.156 0.067 0.32 0.086 0.493s0.028 0.354 0.028 0.544c0 0.208-0.014 0.424-0.043 0.648-0.027 0.217-0.061 0.433-0.1 0.648-0.154-0.034-0.312-0.052-0.471-0.052h-0.385c-0.513 0-1.002 0.065-1.468 0.194s-0.884 0.359-1.254 0.687c-0.37 0.329-0.665 0.778-0.883 1.349s-0.328 1.305-0.328 2.204v6.613c-0.231 0.037-0.464 0.063-0.698 0.078-0.256 0.017-0.489 0.026-0.698 0.026-0.233-0.001-0.466-0.009-0.698-0.026-0.243-0.016-0.486-0.042-0.727-0.078v-13.303l0.001-0zM46.568 4.838c0 0.31-0.062 0.618-0.182 0.909-0.319 0.109-0.658 0.165-0.999 0.166h-0.004c-0.341 0-0.68-0.056-0.999-0.165-0.12-0.291-0.182-0.598-0.182-0.909v-0.004c0-0.32 0.065-0.626 0.181-0.909 0.319-0.11 0.658-0.166 0.999-0.165h0.004c0.352 0 0.688 0.059 0.999 0.165 0.12 0.291 0.182 0.598 0.182 0.909v0.004l0.001 0zM50.051 4.118h-2.762l1.953-1.777c-0.307-0.392-0.684-0.735-1.115-1.014l-1.953 1.777v-2.513c-0.26-0.040-0.523-0.060-0.786-0.060h-0.005c-0.268 0-0.53 0.021-0.786 0.060v2.513l-1.954-1.777c-0.215 0.139-0.417 0.295-0.604 0.465l-0.001 0.001c-0.187 0.17-0.357 0.354-0.51 0.549l1.954 1.777h-2.763c0 0-0.066 0.472-0.066 0.716v0.003c0 0.244 0.023 0.483 0.066 0.716h2.763l-1.954 1.776c0.307 0.392 0.684 0.735 1.116 1.015l1.953-1.777v2.513c0.255 0.039 0.517 0.059 0.785 0.060h0.007c0.263-0 0.526-0.020 0.785-0.060v-2.513l1.953 1.777c0.215-0.139 0.417-0.295 0.604-0.465h0.001c0.187-0.17 0.357-0.354 0.51-0.55l-1.953-1.777h2.763c0.043-0.233 0.065-0.471 0.065-0.714v-0.006c0-0.239-0.022-0.478-0.065-0.714l-0-0zM-0.014 24.882l7.697-10.892h-6.784c-0.057-0.311-0.085-0.657-0.085-1.037 0-0.363 0.029-0.7 0.086-1.012h10.974l0.143 0.338-7.753 10.918h7.269c0.057 0.346 0.086 0.7 0.086 1.063 0 0.346-0.028 0.675-0.085 0.986h-11.402l-0.143-0.363v0zM22.191 18.995c-0.285-0.034-0.646-0.068-1.083-0.103s-0.808-0.052-1.111-0.052c-1.178 0-2.076 0.199-2.694 0.597s-0.926 1.003-0.926 1.815c0 0.519 0.104 0.925 0.313 1.219s0.47 0.519 0.784 0.674c0.314 0.156 0.66 0.251 1.040 0.285s0.741 0.052 1.083 0.052c0.437 0 0.888-0.022 1.354-0.065s0.879-0.108 1.24-0.194v-4.227h-0zM22.191 16.48c0-1.020-0.285-1.729-0.855-2.127s-1.397-0.597-2.48-0.597c-0.666 0-1.288 0.048-1.867 0.143-0.573 0.094-1.14 0.219-1.696 0.376-0.361-0.571-0.541-1.253-0.541-2.049 0.645-0.19 1.358-0.337 2.137-0.441s1.53-0.156 2.252-0.156c1.9 0 3.344 0.394 4.333 1.18s1.482 2.045 1.482 3.773v8.325c-0.665 0.138-1.473 0.281-2.423 0.428-0.961 0.148-1.933 0.221-2.907 0.22-0.931 0-1.772-0.078-2.523-0.233s-1.388-0.406-1.91-0.752c-0.523-0.346-0.926-0.786-1.212-1.322s-0.427-1.184-0.427-1.945c0-0.743 0.166-1.396 0.499-1.958 0.327-0.555 0.79-1.035 1.354-1.4 0.57-0.371 1.226-0.648 1.967-0.829s1.52-0.273 2.337-0.273c0.608 0 1.107 0.013 1.497 0.039s0.717 0.056 0.983 0.091v-0.493l0-0zM30.856 23.066c0.36 0.121 0.732 0.208 1.112 0.259s0.874 0.078 1.482 0.078c0.684 0 1.311-0.099 1.881-0.298s1.059-0.506 1.468-0.921c0.409-0.415 0.732-0.937 0.969-1.569 0.237-0.631 0.357-1.378 0.357-2.243 0-1.383-0.281-2.481-0.841-3.293s-1.478-1.219-2.751-1.219c-0.475 0-0.932 0.078-1.368 0.233-0.438 0.155-0.827 0.389-1.169 0.7s-0.618 0.705-0.826 1.18c-0.21 0.476-0.314 1.042-0.314 1.699v5.393l-0-0zM28.034 11.941c0.193-0.035 0.388-0.061 0.584-0.078 0.204-0.017 0.408-0.026 0.613-0.026 0.189 0 0.389 0.009 0.598 0.026s0.408 0.044 0.599 0.078c0.019 0.035 0.043 0.143 0.071 0.324s0.057 0.376 0.085 0.583c0.029 0.208 0.057 0.407 0.085 0.597s0.043 0.312 0.043 0.363c0.19-0.276 0.418-0.545 0.684-0.804s0.585-0.493 0.955-0.7c0.37-0.208 0.788-0.372 1.254-0.493s0.983-0.182 1.553-0.182c0.855 0 1.648 0.13 2.38 0.389s1.358 0.661 1.881 1.206c0.522 0.545 0.931 1.236 1.226 2.075s0.442 1.829 0.442 2.97c0 2.282-0.68 4.067-2.038 5.355s-3.283 1.932-5.772 1.932c-0.418 0-0.846-0.026-1.283-0.078s-0.817-0.121-1.14-0.207v6.094c-0.241 0.036-0.483 0.062-0.726 0.078-0.257 0.017-0.49 0.026-0.699 0.026-0.233-0.001-0.466-0.009-0.698-0.026-0.234-0.015-0.467-0.041-0.698-0.078v-19.424l0-0z"></path>
</svg>
