<svg version="1.1" xmlns="http://www.w3.org/2000/svg" width="32" height="32" viewBox="0 0 32 32">
  <title>multilingual</title>
  <path d="M26.037 13.358h-5.498c0.047-0.318 0.071-0.639 0.071-0.96v-6.155c-0.002-1.655-0.631-3.242-1.748-4.413s-2.633-1.829-4.214-1.831h-8.685c-1.581 0.002-3.096 0.66-4.214 1.831s-1.747 2.758-1.748 4.413v6.155c0.002 1.655 0.631 3.242 1.748 4.413s2.633 1.829 4.214 1.831h5.5c-0.048 0.318-0.072 0.638-0.072 0.96v6.155c0.002 1.655 0.631 3.242 1.748 4.413s2.633 1.829 4.214 1.831h8.685c1.581-0.002 3.096-0.66 4.214-1.831s1.746-2.758 1.748-4.413v-6.155c-0.002-1.655-0.631-3.242-1.748-4.413s-2.633-1.829-4.214-1.831zM1.285 12.398v-6.155c0.001-1.299 0.495-2.544 1.372-3.462s2.066-1.435 3.306-1.436h8.685c1.24 0.001 2.429 0.518 3.306 1.436s1.37 2.163 1.372 3.462v6.155c-0.001 1.299-0.495 2.543-1.372 3.462s-2.066 1.435-3.306 1.436h-8.685c-1.24-0.001-2.429-0.518-3.306-1.436s-1.37-2.163-1.372-3.462zM26.519 21.114h-1.566c-0.427 1.598-1.222 3.062-2.315 4.263 0.548 0.458 1.14 0.855 1.767 1.184l0.874 0.46c0.075 0.040 0.143 0.094 0.198 0.161s0.097 0.144 0.124 0.228 0.037 0.172 0.031 0.261c-0.006 0.088-0.029 0.174-0.067 0.253s-0.090 0.149-0.154 0.207-0.138 0.102-0.218 0.13c-0.080 0.028-0.165 0.039-0.249 0.032s-0.166-0.030-0.242-0.070l-0.874-0.46c-0.762-0.399-1.479-0.887-2.137-1.456-0.655 0.568-1.37 1.057-2.131 1.456l-0.874 0.46c-0.152 0.080-0.329 0.093-0.491 0.037s-0.296-0.177-0.372-0.337c-0.076-0.159-0.089-0.344-0.036-0.514s0.169-0.309 0.322-0.39l0.874-0.46c0.626-0.328 1.216-0.725 1.762-1.183-0.647-0.719-1.193-1.53-1.623-2.409-0.038-0.079-0.062-0.165-0.068-0.253s0.003-0.177 0.029-0.261c0.026-0.084 0.068-0.162 0.122-0.229s0.122-0.122 0.197-0.163 0.157-0.064 0.241-0.071c0.084-0.007 0.169 0.004 0.249 0.031s0.154 0.071 0.219 0.128 0.117 0.127 0.155 0.206c0.376 0.77 0.855 1.48 1.423 2.108 0.87-0.954 1.526-2.099 1.919-3.352h-6.741c-0.17 0-0.334-0.071-0.454-0.197s-0.188-0.297-0.188-0.476c0-0.178 0.068-0.35 0.188-0.476s0.284-0.197 0.454-0.197h4.182v-2.033c0-0.178 0.068-0.35 0.188-0.476s0.284-0.197 0.454-0.197c0.17 0 0.334 0.071 0.454 0.197s0.188 0.297 0.188 0.476v2.033h4.182c0.171 0 0.334 0.071 0.454 0.197s0.188 0.297 0.188 0.476c0 0.178-0.068 0.35-0.188 0.476s-0.284 0.197-0.454 0.197z"></path>
  <path d="M11.824 5.516c-0.211-0.524-0.655-0.849-1.158-0.849s-0.947 0.325-1.158 0.849l-2.794 6.924c-0.032 0.079-0.048 0.163-0.047 0.249s0.018 0.169 0.051 0.248c0.033 0.078 0.082 0.149 0.142 0.209s0.132 0.107 0.211 0.139c0.079 0.032 0.163 0.048 0.248 0.047s0.169-0.018 0.247-0.052c0.078-0.033 0.149-0.082 0.209-0.142s0.107-0.133 0.138-0.212l1.048-2.596h3.409l1.048 2.596c0.032 0.079 0.079 0.151 0.138 0.212s0.131 0.11 0.209 0.143c0.078 0.033 0.163 0.051 0.248 0.052s0.17-0.015 0.249-0.047c0.079-0.032 0.151-0.079 0.212-0.139s0.109-0.131 0.142-0.21c0.033-0.079 0.050-0.163 0.051-0.248s-0.016-0.17-0.048-0.249l-2.794-6.924zM9.485 9.033l1.181-2.927 1.181 2.927h-2.363z"></path>
</svg>
