<svg version="1.1" xmlns="http://www.w3.org/2000/svg" fill="#fff" width="32" height="32" viewBox="0 0 32 32">
	<title>menu</title>
	<path d="M28.444 24.889h-24.889c-1.961 0-3.556 1.595-3.556 3.556s1.595 3.556 3.556 3.556h24.889c1.961 0 3.556-1.595 3.556-3.556s-1.595-3.556-3.556-3.556z"></path>
	<path d="M28.444 12.444h-24.889c-1.961 0-3.556 1.595-3.556 3.556s1.595 3.556 3.556 3.556h24.889c1.961 0 3.556-1.595 3.556-3.556s-1.595-3.556-3.556-3.556z"></path>
	<path d="M28.444-0h-24.889c-1.961 0-3.556 1.595-3.556 3.556s1.595 3.556 3.556 3.556h24.889c1.961 0 3.556-1.595 3.556-3.556s-1.595-3.556-3.556-3.556z"></path>
</svg>