<svg version="1.1" xmlns="http://www.w3.org/2000/svg" width="32" height="32" viewBox="0 0 32 32">
  <title>language</title>
  <path d="M16 0c-8.837 0-16 7.163-16 16s7.163 16 16 16 16-7.163 16-16-7.163-16-16-16zM29.91 15.484h-6.189c-0.057-2.286-0.463-4.471-1.185-6.47 1.394-0.581 2.682-1.354 3.857-2.268 2.088 2.344 3.394 5.388 3.518 8.738zM15.429 29.907c-1.716-1.429-3.155-3.284-4.207-5.438 1.351-0.422 2.783-0.653 4.262-0.701v6.141c-0.019 0-0.036-0.001-0.055-0.002zM16.569 2.093c1.947 1.621 3.535 3.791 4.61 6.324-1.472 0.503-3.036 0.795-4.664 0.846v-7.173c0.020 0.001 0.036 0.002 0.054 0.003zM18.289 2.269c2.849 0.474 5.405 1.804 7.395 3.731-1.081 0.829-2.262 1.531-3.539 2.062-0.939-2.227-2.258-4.195-3.857-5.793zM15.484 2.090v7.173c-1.628-0.053-3.193-0.344-4.664-0.846 1.075-2.532 2.663-4.703 4.61-6.324 0.019-0.001 0.035-0.002 0.054-0.003zM9.854 8.063c-1.275-0.532-2.457-1.234-3.538-2.062 1.989-1.926 4.546-3.257 7.395-3.731-1.6 1.597-2.917 3.565-3.858 5.793zM10.431 9.369c1.592 0.552 3.288 0.874 5.053 0.928v5.187h-6.172c0.056-2.162 0.439-4.227 1.119-6.115zM15.484 16.516v6.219c-1.628 0.050-3.202 0.316-4.685 0.794-0.894-2.129-1.421-4.5-1.486-7.013h6.172zM13.711 29.731c-2.553-0.424-4.871-1.536-6.756-3.15 1.017-0.705 2.116-1.302 3.291-1.755 0.9 1.866 2.078 3.523 3.465 4.905zM16.516 29.91v-6.141c1.478 0.047 2.911 0.279 4.262 0.701-1.054 2.154-2.492 4.009-4.207 5.438-0.018 0-0.036 0.001-0.055 0.002zM21.754 24.826c1.174 0.453 2.272 1.051 3.291 1.755-1.885 1.613-4.203 2.726-6.756 3.15 1.387-1.382 2.564-3.039 3.465-4.905zM21.202 23.529c-1.484-0.478-3.059-0.744-4.685-0.794v-6.219h6.172c-0.065 2.514-0.594 4.885-1.486 7.013zM16.516 15.484v-5.187c1.764-0.054 3.46-0.375 5.053-0.927 0.679 1.888 1.062 3.954 1.119 6.115h-6.172zM5.609 6.746c1.175 0.914 2.463 1.687 3.855 2.268-0.722 1.999-1.128 4.184-1.185 6.47h-6.189c0.124-3.35 1.43-6.394 3.519-8.738zM2.090 16.516h6.189c0.064 2.637 0.615 5.128 1.551 7.367-1.308 0.51-2.527 1.189-3.652 1.993-2.424-2.412-3.954-5.71-4.089-9.361zM25.821 25.876c-1.125-0.803-2.344-1.483-3.653-1.993 0.937-2.239 1.487-4.73 1.553-7.367h6.189c-0.135 3.651-1.666 6.949-4.089 9.361z"></path>
</svg>