<svg version="1.1" xmlns="http://www.w3.org/2000/svg" width="32" height="32" viewBox="0 0 32 32">
  <title>startup</title>
  <path d="M3.706 19.973h-3.663v-1.332c-0.020-1.867 0.474-3.703 1.429-5.308s2.333-2.915 3.984-3.788c1.626-0.802 3.387-1.294 5.193-1.451-0.789 0.976-1.581 2.014-2.374 3.113-1.787 2.776-3.317 5.71-4.569 8.766zM20.792 23.719c-2.776 1.79-5.71 3.321-8.766 4.575v3.663h1.332c1.867 0.020 3.704-0.474 5.308-1.429s2.915-2.333 3.788-3.984c0.802-1.626 1.294-3.387 1.451-5.193-0.972 0.786-2.010 1.575-3.113 2.367zM32 3.983c-0.177 5.796-4.35 11.545-12.759 17.577-2.288 1.483-4.702 2.763-7.214 3.824v-0.75c-0.006-1.234-0.499-2.416-1.372-3.289s-2.055-1.366-3.289-1.372h-0.75c1.062-2.512 2.344-4.926 3.83-7.213 6.017-8.395 11.756-12.569 17.543-12.76 2.884 0 4.011 1.178 4.011 3.983zM24.011 11.318c0-0.883-0.351-1.73-0.975-2.354s-1.471-0.975-2.354-0.975c-0.883 0-1.73 0.351-2.354 0.975s-0.975 1.471-0.975 2.354c0 0.883 0.351 1.73 0.975 2.354s1.471 0.975 2.354 0.975c0.883 0 1.73-0.351 2.354-0.975s0.975-1.471 0.975-2.354zM1.872 31.671c1.499-0.266 5.114-1.009 6.322-2.216 0.371-0.371 0.665-0.811 0.866-1.296s0.304-1.004 0.304-1.529-0.103-1.044-0.304-1.529c-0.201-0.485-0.495-0.925-0.866-1.296s-0.811-0.665-1.296-0.866-1.004-0.304-1.529-0.304c-1.060 0-2.076 0.421-2.825 1.17-1.206 1.208-1.951 4.823-2.216 6.322l-0.329 1.872 1.872-0.329z"></path>
</svg>
